<svg id="Vrstva_1" data-name="Vrstva 1" xmlns="http://www.w3.org/2000/svg" viewBox="0 0 566.93 216.39"><defs><style>.cls-1{fill:#1d1d1b;}.cls-2{fill:#8b9a23;}</style></defs><path class="cls-1" d="M195.78,48.9H173V46.57h26.8L177.05,85.3h22.78v2.32H173Z"/><path class="cls-1" d="M231.62,87.62,226,72.47H211.59L206,87.62h-2.51l15.37-41.39L234.1,87.62Zm-6.44-17.45L218.83,53l-6.38,17.21Z"/><path class="cls-1" d="M240.43,68.26V87.62h-2.37V46.57h2.37V65.94h21.39V46.57h2.36V87.62h-2.36V68.26Z"/><path class="cls-1" d="M280.44,73.37l-.71,0h-7.09V87.62h-2.37V46.57h11a14,14,0,0,1,8.13,3.92,13.26,13.26,0,0,1,0,19A13.28,13.28,0,0,1,283,73l9.63,14.6h-2.9Zm-7.8-24.44V71h7.09a11,11,0,0,0,7.95-3.23,10.94,10.94,0,0,0,0-15.66,11,11,0,0,0-7.95-3.22Z"/><path class="cls-1" d="M324.61,87.62,319,72.47H304.58L299,87.62h-2.51l15.37-41.39,15.27,41.39Zm-6.44-17.45L311.82,53l-6.39,17.21Z"/><path class="cls-1" d="M339.32,46.57q10.32.06,16,5.66a20.81,20.81,0,0,1,0,29.76q-5.67,5.57-16,5.63h-7.74V46.57ZM334,49V85.24h5.35q9,0,14.21-4.94a18.48,18.48,0,0,0,0-26.41Q348.31,49,339.3,49Z"/><path class="cls-1" d="M378.71,71,364.35,46.57H367l12.85,21.89,12.86-21.89h2.69L381.08,71V87.62h-2.37Z"/><path class="cls-2" d="M189.72,131.65a23.19,23.19,0,0,1-9.24-5.23,11.23,11.23,0,0,1,0-16.08,11.76,11.76,0,0,1,16.44,0,9.78,9.78,0,0,1,2.6,4l-2.79,1.06a8.64,8.64,0,0,0-14-3,8,8,0,0,0-2.5,5.93,8.11,8.11,0,0,0,2.48,5.94,23,23,0,0,0,6.43,4.11,27.33,27.33,0,0,1,11.08,6.5,15.78,15.78,0,0,1,0,22.53,16.31,16.31,0,0,1-22.91,0,14.93,14.93,0,0,1-4.57-8.68l2.9-1a12.18,12.18,0,0,0,3.8,7.61,13.37,13.37,0,0,0,18.67,0,12.75,12.75,0,0,0,0-18.3A25,25,0,0,0,189.72,131.65Z"/><path class="cls-2" d="M244,107.64h3.1V146.3a17.66,17.66,0,0,1-5.23,10.46,18.12,18.12,0,0,1-25.29,0,16.73,16.73,0,0,1-5.23-12.4V107.64h3.1v36.72a13.8,13.8,0,0,0,4.34,10.23,14.93,14.93,0,0,0,20.89,0A13.85,13.85,0,0,0,244,144.36Z"/><path class="cls-2" d="M298.87,152.88l2.36,2.05a28.46,28.46,0,0,1-38.71-.89,27.24,27.24,0,0,1,0-39,28.37,28.37,0,0,1,38.71-.9l-2.36,2.06a25.25,25.25,0,0,0-34.11,1,24.13,24.13,0,0,0,0,34.58,25.28,25.28,0,0,0,34.11,1Z"/><path class="cls-2" d="M310.37,136.06v25.38h-3.1v-53.8h3.1V133h28V107.64h3.1v53.8h-3.1V136.06Z"/><path class="cls-2" d="M365.22,139.68l-18.83-32h3.53l16.84,28.69,16.85-28.69h3.53l-18.83,32v21.76h-3.09Zm9.06-46.08-8.41,6.28H363l5.57-6.28Z"/></svg>