<svg id="Vrstva_1" data-name="Vrstva 1" xmlns="http://www.w3.org/2000/svg" viewBox="0 0 566.93 216.39"><defs><style>.cls-1{fill:#8f9d24;}</style></defs><path class="cls-1" d="M274.12,26.77l2.19-2.65.57-.81a86,86,0,0,0-45,21l1.58,2.34.9,1.2,2.65,3.1,2.94,3,1.36,1.29,4.49,4,5.49,4.49L255.72,67l3.77,2.33.38.18.24-3.4-.23-8,.38-4.82.31-2.47.55-2.5.61-2.39.78-2.41.93-2.33,1.09-2.26,1.24-2.18,1.42-2,1.54-1.94h0v0L270.36,31h0l1.75-2.06Z"/><path class="cls-1" d="M280.28,24.18l-2.09,3.09-4.45,6-2.13,3-3,4.71L267,44.23l-1.12,3.36-.45,1.72-.51,3.59-.08,3.58.23,3.77.23,1.81.37,1.86.91,3.8,1.21,3.69L269.24,75l1.59,3.57L272.72,82l2,3.26,2.13,3.11,4.27,6,2.07,3.07,1.86,3.16,1.69,3.24,1.47,3.33,1.39,3.46,2.31,7.15,2.3,8.74.27-.93,1.08-3.16,2.46-6.08,2.85-5.7,1.53-2.84,3.31-5.39,1.77-2.69,3.68-5.21,2-2.62L317.36,87l2.23-2.23,3.54-8.89,2.31-4.79L328.13,66l6.43-11.33,2.25-4.57a.41.41,0,0,1,.05-.09s0,0,0,0,0,0,0,0a.76.76,0,0,1,.09-.09l.11-.08.1,0a.58.58,0,0,1,.14,0h.1l.14,0h.06l.06,0s.05,0,.07,0L338,50a.65.65,0,0,1,.26.74l-.54,1.68-.79,1.76-1.52,3.65-1.69,3.76-3.67,7.73-2.59,5.93-1.36,4.1,2.8-2.19,11.64-8.27,2.19-1.74,2.12-1.82,2.05-1.89,2-2,3.71-4.24L354.41,55l1.14-1.46a86.07,86.07,0,0,0-66.32-31.12c-2.76,0-5.48.14-8.17.39Z"/><path class="cls-1" d="M212.05,82.28,219.57,90l2,1.65,2,1.5,2.07,1.18,2.18.79,2.41.68,2.45.37,10.16,1.37,2.54.46,2.49.62,4.84,1.38,4.84,1.62,4.77,1.84,4.67,1.92,6.92,3.3,2.26,1.32,2.17,1.48.35.25-.47-1.29-2-4.41-2.37-5-3.73-7.4-4.42-7.69-1.89-2.87-3.24-4.22-2.19-2.34-1.28-1.2L251.86,71l-2.69-2.38-5.53-5.29-6.9-7.3-4.61-5.68L230.57,48l-.94-1.63A86.46,86.46,0,0,0,208.21,79Z"/><path class="cls-1" d="M358,56.59l-.54.74-3.14,4.06-5.24,5.85-1.76,1.85-3.85,3.54-11.95,10-3.88,3.43-5.39,5.39-1.75,1.9-3.17,4-3,4.25L311.6,106l-2.5,4.55-2.28,4.71-2.05,4.85-1.9,4.88-.83,2.49-1.44,5.16-1.14,5.16-.68,5.29-.22,2.73-.08,2.72.23,5.52.23,2.81.76,5.55,1.06,5.46,1.75,7.69,1.83,6.86,1.3,4.35L307,191l.76,1.91A86.25,86.25,0,0,0,358,56.59Z"/><path class="cls-1" d="M280.13,186v-5l.23-4.77,1.38-19.11.15-4.87-.08-4.94-.3-4.79-.3-2.4-.38-2.35-1-4.54-.67-2.25-.76-2.19-.9-2.1-1-2-1.19-1.92-1.29-1.89-1.41-1.71-1.58-1.65-1.66-1.58-1.8-1.5L265.73,113l-2-1.28-4.23-2.34-2.13-1.06-2.26-1-4.49-1.75L246,104.11l-4.64-1.3-4.64-1.14-14.19-2.89-9.41-2.07-9-2.29a86.19,86.19,0,0,0,76.09,100.06Z"/><path class="cls-1" d="M208.57,91.69l10.06,2L215,89.71,212,86l-1.64-1.71-1.66-1.59-1.33-1.1a86.78,86.78,0,0,0-2.48,9.15Z"/></svg>